<svg width="64" height="64" version="1.1" viewBox="0 0 16.9 16.9" xmlns="http://www.w3.org/2000/svg">
 <g transform="matrix(1.01 0 0 1.09 -.132 -.979)">
  <rect x=".33" y="1.09" width="16.4" height="15.1" ry="1" fill="#5fc6f0" stroke="#000" stroke-linecap="round" stroke-linejoin="round" stroke-width=".289"/>
  <path d="m14.2 6.62c.27.0761.462.335.709.468.198.161.33-.114.445-.278.165-.0263.349.0195.529.0331l.000316-1.59e-5c.074.127.152.25.241.363.27.216.339.642.591.875l.015.128-.0196 3.31-3.34.433-3.93-2.13.05-.975c.198-.19.4-.371.593-.569.241-.238.384-.575.591-.848.231-.214.473-.423.713-.636l-.000677.00771c.104.132.286-.0735.4.108.129.242.36.138.541.026.204-.0961.413.192.622-.00501.109-.132.203.111.314.15.134.107.324.136.454-.0211.169-.125.272-.434.483-.438z" fill="#916f6f"/>
  <path d="m13.9 4.82c.234-.021.477.047.674.173.297.421.718.692.997 1.14.0964.248.209.487.339.711-.18-.0136-.364-.0594-.53-.0331-.114.165-.247.439-.445.278-.247-.132-.439-.392-.709-.468-.211.00369-.314.313-.483.438-.13.157-.32.128-.454.0211-.111-.0392-.205-.282-.314-.15-.209.197-.417-.0911-.622.005-.182.112-.412.217-.541-.026-.114-.182-.296.024-.4-.108l.000676-.00771c.0695-.0615.14-.122.208-.185.423-.486.91-.869 1.4-1.24.239-.123.404-.381.646-.495.0743-.0279.152-.0446.23-.0516z" fill="#fff"/>
  <path d="m16.7 8.92c-.283.0312-.561-.000578-.862.24-1.09.357-1.29.75-1.5 1.14.0872-.0198.175-.0382.261-.0637-.0198-.111.142-.127.208-.185.144-.0727.312-.0832.455-.158.0967-.122.251-.176.384-.249.051-.0235.862-.131.928-.135-.186.118-.399.198-.609.287-.481.174-.83.566-1.27.811-.431.2-.59.686-.629 1.13-.0069.409-.169.793-.132 1.21.0396.422-.115.892-.561 1.02-.63.232-1.26.475-1.86.766-.879.443-1.84.726-2.55 1.23l-.217.2h6.95c.555 0 1-.447 1-1z" fill="#00a700"/>
  <path d="m4.86 7.55c-.483.132-.829.526-1.27.739-.355.251-.588-.142-.791-.376-.295-.0263-.624.0546-.946.088h-.000563c-.134.192-.275.378-.434.55-.485.338-.612.968-1.06 1.33l-.0282.19v4.86l5.97.386 7.04-3.42-.079-1.43c-.351-.264-.711-.515-1.05-.792-.429-.332-.68-.815-1.05-1.2-.411-.297-.841-.586-1.27-.88l.00108.0113c-.186.202-.51-.0867-.716.189-.233.366-.644.229-.967.0784-.364-.126-.739.313-1.11.0389-.193-.186-.364.178-.562.244-.24.167-.581.224-.811.00283-.301-.171-.482-.617-.859-.607z" fill="#6c5353"/>
  <path d="m5.47 4.88c-.419-.0134-.853.104-1.21.305-.536.64-1.29 1.07-1.79 1.75-.175.371-.378.731-.614 1.07.322-.0333.651-.114.946-.088.203.233.436.626.791.376.443-.213.788-.608 1.27-.739.377-.0103.558.436.859.607.23.222.571.164.811-.00283.198-.0657.369-.43.562-.244.371.274.747-.165 1.11-.0389.323.15.734.287.967-.0784.205-.276.529.0131.716-.189l-.00117-.0113c-.123-.0851-.248-.169-.37-.255-.751-.681-1.62-1.21-2.49-1.72-.426-.163-.718-.53-1.15-.679-.133-.0354-.271-.0542-.41-.0587z" fill="#fff"/>
  <path d="m16.6 9.52c-.0668.00431-.877.112-.928.135-.133.0729-.287.126-.384.249-.144.0747-.311.0852-.455.158-.0658.0583-.227.0739-.208.185-.134.0398-.271.068-.407.0993-.255.0682-.496.174-.837.193-1.03.526-1.13.609-2.75 1.07-.633.179-1.31.173-1.95.334-1.49.376.0777.34-1.36.445-.157.0115-.315-.0208-.473-.0276-.561-.0244-1.14-.0899-1.7.0553-.0323.0085-.0536.0409-.0835.0558-.0631.0316-.13.0561-.195.0835-.237.0996-.507.189-.723.333-.157.105-.302.22-.473.306-.161.0807-.435.0282-.611.0282-.343 0-.694.0442-1.03.111-.0996.0199-.236-.0327-.334 0-.127.0425-.326.103-.343.156l-1.02.376v1.3c0 .555.447 1 1 1h7.42l.217-.2c.713-.503 1.67-.786 2.55-1.23.606-.291 1.23-.535 1.86-.766.446-.13.6-.6.561-1.02-.037-.414.125-.797.132-1.21.0392-.439.198-.926.629-1.13.443-.245.791-.637 1.27-.811.209-.0882.423-.169.609-.287z" fill="#a3c8d7"/>
  <path d="m.303 12.7c.807-.459 1.76-.0553 2.61-.297.663-.401 1.48-.0321 2.18-.35 1.05-.362 2.16-.289 3.25-.227.667.0877 1.19-.38 1.82-.498.75-.182 1.44-.556 2.22-.608.838-.194 1.74-.402 2.35-1.06.192-.225 1.11-.686 1.01-.246-.615.55-1.34.965-2.1 1.27-.663.442-1.39.777-2.07 1.19-.745.334-1.32.874-2 1.31-.56.42-1.23.665-1.93.688-.495.0487-.988.0551-1.48-.0445-.598-.0917-1.24.0568-1.66.503-.616.375-1.3.657-1.97.892-.781-.011-1.12 1.14-1.94.648-.645-.317-.287-1.06-.244-1.59.0782-.526.0752-1.06-.0477-1.58z" fill="#009000"/>
  <rect x=".33" y="1.09" width="16.4" height="15.1" ry="1" fill="none" stroke="#b3b3b3" stroke-linecap="round" stroke-linejoin="round" stroke-width=".398"/>
 </g>
</svg>
